<?xml version="1.0" encoding="iso-8859-1"?>
<!-- Generator: Adobe Illustrator 19.0.0, SVG Export Plug-In . SVG Version: 6.00 Build 0)  -->
<svg version="1.1" id="Layer_1" xmlns="http://www.w3.org/2000/svg" xmlns:xlink="http://www.w3.org/1999/xlink" x="0px" y="0px"
	 viewBox="0 0 512 512" style="enable-background:new 0 0 512 512;" xml:space="preserve">
<circle style="fill:#88C5CC;" cx="256" cy="256" r="256"/>
<rect x="312" y="368" style="fill:#E16B5A;" width="112" height="4"/>
<rect x="172" y="344" style="fill:#E6E6E6;" width="88" height="36"/>
<path style="fill:#1E2C33;" d="M44,304V128c0-5.004,3.22-8,8-8h328c4.78,0,8,2.996,8,8v176H44z"/>
<g>
	<path style="fill:#F5F5F5;" d="M44,304v32c0,4.78,3.22,8,8,8h328c4.78,0,8-3.22,8-8v-32H44z"/>
	<rect x="60" y="140" style="fill:#F5F5F5;" width="312" height="148"/>
</g>
<rect x="72" y="148" style="fill:#406A80;" width="288" height="36"/>
<path style="fill:#F5F5F5;" d="M288,388c0-4.416-3.584-8-8-8H152c-4.416,0-8,3.584-8,8l0,0c0,4.416,3.584,8,8,8h128
	C284.416,396,288,392.416,288,388L288,388z"/>
<circle style="fill:#1E2C33;" cx="216.2" cy="320" r="8"/>
<g>
	<rect x="72" y="192" style="fill:#406A80;" width="88" height="16"/>
	<rect x="72" y="216" style="fill:#406A80;" width="88" height="16"/>
	<rect x="72" y="240" style="fill:#406A80;" width="88" height="16"/>
	<rect x="72" y="264" style="fill:#406A80;" width="88" height="16"/>
	<rect x="272" y="192" style="fill:#406A80;" width="88" height="16"/>
	<rect x="272" y="216" style="fill:#406A80;" width="88" height="16"/>
	<rect x="272" y="240" style="fill:#406A80;" width="88" height="16"/>
	<rect x="272" y="264" style="fill:#406A80;" width="88" height="16"/>
	<rect x="172" y="192" style="fill:#406A80;" width="88" height="16"/>
	<rect x="172" y="216" style="fill:#406A80;" width="88" height="16"/>
	<rect x="172" y="240" style="fill:#406A80;" width="88" height="16"/>
	<rect x="172" y="264" style="fill:#406A80;" width="88" height="16"/>
</g>
<path style="fill:#E6E6E6;" d="M436,424c0,6.628-5.372,12-12,12H312c-6.628,0-12-5.372-12-12V196c0-6.628,5.372-12,12-12h112
	c6.628,0,12,5.372,12,12V424z"/>
<rect x="304" y="220" style="fill:#F5F5F5;" width="128" height="168"/>
<g>
	<rect x="312" y="224" style="fill:#406A80;" width="112" height="24"/>
	<rect x="312" y="256" style="fill:#406A80;" width="112" height="16"/>
	<rect x="312" y="324" style="fill:#406A80;" width="112" height="16"/>
	<rect x="312" y="276" style="fill:#406A80;" width="112" height="8"/>
	<rect x="312" y="292" style="fill:#406A80;" width="112" height="8"/>
	<rect x="312" y="308" style="fill:#406A80;" width="112" height="8"/>
	<rect x="312" y="344" style="fill:#406A80;" width="112" height="8"/>
	<rect x="312" y="356" style="fill:#406A80;" width="112" height="8"/>
	<rect x="312" y="368" style="fill:#406A80;" width="112" height="8"/>
	<circle style="fill:#406A80;" cx="371.8" cy="196" r="4"/>
	<path style="fill:#406A80;" d="M391.812,212h-40c-2.212,0-4-1.788-4-4s1.788-4,4-4h40c2.212,0,4,1.788,4,4S394.024,212,391.812,212
		z"/>
</g>
<g>
	<path style="fill:#E6E6E6;" d="M407.812,188h-8c-2.212,0-4-1.788-4-4s1.788-4,4-4h8c2.212,0,4,1.788,4,4S410.024,188,407.812,188z"
		/>
	<path style="fill:#E6E6E6;" d="M300,236c-2.212,0-4-1.788-4-4v-16c0-2.212,1.788-4,4-4s4,1.788,4,4v16
		C304,234.212,302.212,236,300,236z"/>
	<path style="fill:#E6E6E6;" d="M300,256c-2.212,0-4-1.788-4-4v-4c0-2.212,1.788-4,4-4s4,1.788,4,4v4
		C304,254.212,302.212,256,300,256z"/>
	<path style="fill:#E6E6E6;" d="M300,272c-2.212,0-4-1.788-4-4v-4c0-2.212,1.788-4,4-4s4,1.788,4,4v4
		C304,270.212,302.212,272,300,272z"/>
</g>
<path style="fill:#406A80;" d="M368,396c-6.616,0-12,5.384-12,12s5.384,12,12,12s12-5.384,12-12S374.616,396,368,396z"/>
<g>
</g>
<g>
</g>
<g>
</g>
<g>
</g>
<g>
</g>
<g>
</g>
<g>
</g>
<g>
</g>
<g>
</g>
<g>
</g>
<g>
</g>
<g>
</g>
<g>
</g>
<g>
</g>
<g>
</g>
</svg>
