<?xml version="1.0" encoding="iso-8859-1"?>
<!-- Generator: Adobe Illustrator 19.0.0, SVG Export Plug-In . SVG Version: 6.00 Build 0)  -->
<svg version="1.1" id="Layer_1" xmlns="http://www.w3.org/2000/svg" xmlns:xlink="http://www.w3.org/1999/xlink" x="0px" y="0px"
	 viewBox="0 0 512 512" style="enable-background:new 0 0 512 512;" xml:space="preserve">
<circle style="fill:#88C5CC;" cx="256" cy="256" r="256"/>
<path style="fill:#F5F5F5;" d="M424,376c0,8.8-7.2,16-16,16H96c-8.8,0-16-7.2-16-16V144c0-8.8,7.2-16,16-16h312c8.8,0,16,7.2,16,16
	V376z"/>
<path style="fill:#406A80;" d="M100,380c-4.4,0-8-3.6-8-8V176c0-4.4,3.6-8,8-8h304c4.4,0,8,3.6,8,8v196c0,4.4-3.6,8-8,8H100z"/>
<path style="fill:#F5F5F5;" d="M310.28,263.428h-7.704c-1.412-7.716-4.532-14.82-8.968-20.92l5.664-5.66
	c0.672-0.668,0.672-1.752,0-2.42l-9.696-9.7c-0.664-0.664-1.752-0.664-2.42,0l-5.784,5.78c-6.096-4.252-13.164-7.216-20.8-8.496
	v-8.292c0-0.944-0.768-1.72-1.716-1.72H245.14c-0.94,0-1.716,0.772-1.716,1.72v8.292c-7.636,1.28-14.696,4.248-20.796,8.496
	l-5.784-5.78c-0.668-0.664-1.756-0.664-2.424,0l-9.7,9.7c-0.668,0.668-0.668,1.752,0,2.42l5.664,5.66
	c-4.436,6.1-7.556,13.212-8.964,20.92h-7.708c-0.944,0-1.716,0.764-1.716,1.716v13.712c0,0.944,0.772,1.716,1.716,1.716h7.452
	c1.216,7.916,4.24,15.228,8.624,21.512l-5.068,5.076c-0.668,0.668-0.668,1.752,0,2.42l9.7,9.7c0.668,0.668,1.756,0.668,2.424,0
	l4.948-4.944c6.288,4.572,13.648,7.752,21.632,9.088v6.868c0,0.936,0.772,1.716,1.716,1.716h13.716c0.94,0,1.716-0.772,1.716-1.716
	v-6.868c7.992-1.344,15.344-4.524,21.632-9.088l4.948,4.944c0.668,0.668,1.752,0.668,2.424,0l9.696-9.7
	c0.664-0.668,0.664-1.752,0-2.42l-5.072-5.076c4.392-6.284,7.416-13.592,8.624-21.512h7.452c0.944,0,1.716-0.764,1.716-1.716
	v-13.712C312,264.2,311.228,263.428,310.28,263.428z M252,297.716c-14.2,0-25.716-11.512-25.716-25.716s11.512-25.716,25.716-25.716
	s25.72,11.512,25.72,25.716S266.2,297.716,252,297.716z"/>
<g>
	<path style="fill:#E16B5A;" d="M252,309.716c-20.796,0-37.716-16.916-37.716-37.716s16.92-37.716,37.716-37.716
		S289.72,251.2,289.72,272S272.796,309.716,252,309.716z M252,241.144c-17.016,0-30.856,13.84-30.856,30.856
		s13.84,30.856,30.856,30.856s30.856-13.84,30.856-30.856S269.016,241.144,252,241.144z"/>
	<circle style="fill:#E16B5A;" cx="100" cy="148" r="8"/>
</g>
<circle style="fill:#FFD464;" cx="124" cy="148" r="8"/>
<circle style="fill:#74B340;" cx="148" cy="148" r="8"/>
<path style="fill:#E6E6E6;" d="M384,152c0,2.2-1.8,4-4,4H168c-2.2,0-4-1.8-4-4v-8c0-2.2,1.8-4,4-4h212c2.2,0,4,1.8,4,4V152z"/>
<g>
</g>
<g>
</g>
<g>
</g>
<g>
</g>
<g>
</g>
<g>
</g>
<g>
</g>
<g>
</g>
<g>
</g>
<g>
</g>
<g>
</g>
<g>
</g>
<g>
</g>
<g>
</g>
<g>
</g>
</svg>
