<?xml version="1.0" encoding="iso-8859-1"?>
<!-- Generator: Adobe Illustrator 19.0.0, SVG Export Plug-In . SVG Version: 6.00 Build 0)  -->
<svg version="1.1" id="Layer_1" xmlns="http://www.w3.org/2000/svg" xmlns:xlink="http://www.w3.org/1999/xlink" x="0px" y="0px"
	 viewBox="0 0 512 512" style="enable-background:new 0 0 512 512;" xml:space="preserve">
<g>
	<circle style="fill:#C2D5D8;" cx="256" cy="256" r="256"/>
	<circle style="fill:#C2D5D8;" cx="256" cy="256" r="256"/>
</g>
<path style="fill:#45998B;" d="M160.812,335.172c-20.92,0-105.968-5.184-127.64,46.476C56.676,423.124,91.376,456,133.228,480
	h27.584h80.056c0,0,64.048-22.056,51.244-86.408C279.292,329.244,183.228,335.172,160.812,335.172z"/>
<path style="fill:#3F8C7F;" d="M292.1,393.928c-11.908-59.836-95.752-59.2-125.5-58.82c36.516,0.648,99.804,7.424,110.032,58.82
	c12.804,64.352-51.236,86.74-51.236,86.74h15.464C240.868,480.668,304.916,458.28,292.1,393.928z"/>
<ellipse style="fill:#F5F5F5;" cx="160.8" cy="339.36" rx="39.172" ry="15.388"/>
<path style="fill:#E6CBC3;" d="M195.556,331.152h0.016l-9.58-29.792l-25.18-1.864l-25.184,1.864l-9.584,29.792h0.016
	c-0.14,0.412-0.232,0.824-0.232,1.24c0,6.172,15.66,11.172,34.976,11.172c19.308,0,34.972-5,34.972-11.172
	C195.78,331.976,195.7,331.564,195.556,331.152z"/>
<path style="fill:#D9BFB8;" d="M195.556,331.152h0.016l-9.58-29.792l-25.18-1.864l-4.9,0.36l20.28,1.504l9.58,29.792h-0.008
	c0.14,0.412,0.228,0.824,0.228,1.24c0,5.636-13.084,10.288-30.08,11.056c1.6,0.072,3.232,0.116,4.9,0.116
	c19.312,0,34.972-5,34.972-11.172C195.78,331.976,195.7,331.564,195.556,331.152z"/>
<path style="fill:#FFE1D9;" d="M233.564,181.28v-29.104c0-22.7-16.148-40.844-72.752-40.844S88.06,129.476,88.06,152.176v29.104
	c0,0-11.196,0.828-11.196,8.396v30.972c0,7.568,2.796,13.796,11.196,13.796c0,37.836,33.636,81.144,72.752,81.144
	c39.1,0,72.752-43.304,72.752-81.144c8.396,0,11.188-6.228,11.188-13.796v-30.972C244.752,182.108,233.564,181.28,233.564,181.28z"
	/>
<path style="fill:#F2D6CE;" d="M160.812,111.332c-1.428,0-2.82,0.02-4.204,0.044c53.2,0.884,68.556,18.672,68.556,40.8v29.104
	v53.164c0,36.472-31.264,78.016-68.556,80.964c1.4,0.108,2.788,0.18,4.204,0.18c39.1,0,72.752-43.304,72.752-81.144V181.28v-29.104
	C233.564,129.476,217.416,111.332,160.812,111.332z"/>
<path style="fill:#99602E;" d="M160.812,111.332c-56.6,0-72.752,18.144-72.752,40.844v29.104v30.78
	c2.584-12.956,9.992-49.892,26.62-61.948c13.24,3.784,29.084,5.988,46.124,5.988s32.888-2.204,46.12-5.988
	c16.632,12.06,24.036,48.992,26.624,61.948v-30.78v-29.104C233.564,129.476,217.416,111.332,160.812,111.332z"/>
<path style="fill:#8C582A;" d="M160.812,111.332c-1.428,0-2.812,0.02-4.196,0.044c53.192,0.888,68.548,18.672,68.548,40.8v27.616
	c4.452,12.668,7.072,25.624,8.4,32.268v-30.78v-29.104C233.564,129.476,217.416,111.332,160.812,111.332z"/>
<ellipse style="fill:#F5F5F5;" cx="138.564" cy="203.668" rx="11.188" ry="8.396"/>
<circle style="fill:#734822;" cx="138.564" cy="203.668" r="5.596"/>
<ellipse style="fill:#F5F5F5;" cx="188.92" cy="203.668" rx="11.188" ry="8.396"/>
<circle style="fill:#734822;" cx="188.92" cy="203.668" r="5.596"/>
<g>
	<path style="fill:#45998B;" d="M478.828,381.648c-21.672-51.664-106.72-46.644-127.64-46.644
		c-22.416,0-118.48-5.844-131.288,58.508C207.084,457.864,271.136,480,271.136,480h80.056h27.588
		C420.624,456,455.324,423.124,478.828,381.648z"/>
	<path style="fill:#45998B;" d="M270.68,511.556c3.736-0.216,7.444-0.484,11.128-0.852c0.148-0.012,0.292-0.02,0.44-0.036
		c3.776-0.388,7.524-0.888,11.252-1.424c1.024-0.156,2.044-0.312,3.068-0.476c3.384-0.54,6.748-1.128,10.084-1.796
		c0.384-0.08,0.768-0.14,1.16-0.22c3.56-0.736,7.084-1.568,10.584-2.444c1.112-0.28,2.232-0.572,3.344-0.868
		c2.932-0.776,5.852-1.6,8.752-2.484c0.756-0.236,1.528-0.444,2.28-0.688c3.2-1,6.356-2.084,9.492-3.204
		c1.264-0.46,2.532-0.92,3.788-1.4c2.408-0.908,4.784-1.848,7.156-2.824c1.4-0.576,2.784-1.148,4.172-1.748
		c2.576-1.108,5.116-2.264,7.648-3.456c1.444-0.684,2.884-1.388,4.312-2.092c1.844-0.916,3.672-1.856,5.492-2.816
		c2.14-1.124,4.256-2.272,6.368-3.46c1.804-1.016,3.604-2.04,5.384-3.092c1.632-0.972,3.252-1.968,4.868-2.976
		c1.28-0.804,2.56-1.624,3.828-2.452c2.968-1.936,5.904-3.928,8.788-5.984c0.924-0.656,1.86-1.304,2.776-1.976
		c1.796-1.312,3.576-2.656,5.328-4.016c0.788-0.604,1.568-1.228,2.344-1.836c3.772-2.984,7.476-6.06,11.076-9.248
		c0.048-0.04,0.088-0.084,0.132-0.112c1.904-1.688,3.764-3.404,5.608-5.14c0.392-0.36,0.764-0.732,1.148-1.092
		c5.672-5.408,11.1-11.072,16.256-16.968c0.112-0.124,0.228-0.256,0.336-0.384c10.748-12.348,20.328-25.728,28.58-39.984H34.336
		c8.252,14.252,17.832,27.636,28.58,39.984c0.108,0.124,0.224,0.256,0.336,0.384c5.156,5.908,10.584,11.564,16.256,16.968
		c0.384,0.364,0.756,0.736,1.148,1.092c1.844,1.74,3.712,3.452,5.608,5.14c0.044,0.04,0.084,0.076,0.132,0.112
		c3.592,3.188,7.296,6.26,11.076,9.248c0.776,0.612,1.556,1.236,2.344,1.836c1.752,1.364,3.532,2.704,5.328,4.016
		c0.916,0.672,1.852,1.32,2.776,1.976c2.892,2.056,5.82,4.048,8.788,5.984c1.268,0.828,2.548,1.648,3.828,2.452
		c1.608,1.008,3.236,2.004,4.868,2.976c1.772,1.064,3.58,2.084,5.384,3.092c2.1,1.18,4.228,2.336,6.368,3.46
		c1.82,0.956,3.648,1.904,5.492,2.816c1.428,0.708,2.868,1.412,4.312,2.092c2.536,1.192,5.084,2.352,7.668,3.464
		c1.376,0.588,2.76,1.164,4.144,1.736c2.376,0.976,4.756,1.92,7.164,2.824c1.256,0.476,2.524,0.94,3.788,1.396
		c3.136,1.124,6.292,2.212,9.488,3.212c0.756,0.24,1.528,0.452,2.288,0.688c2.896,0.88,5.812,1.704,8.752,2.484
		c1.108,0.296,2.228,0.584,3.344,0.864c3.5,0.88,7.024,1.712,10.584,2.44c0.388,0.084,0.776,0.148,1.16,0.224
		c3.336,0.668,6.7,1.26,10.084,1.8c1.016,0.164,2.04,0.32,3.064,0.468c3.736,0.548,7.476,1.048,11.256,1.428
		c0.14,0.016,0.288,0.024,0.436,0.036c3.684,0.372,7.4,0.636,11.128,0.848c0.992,0.056,1.98,0.108,2.972,0.152
		c3.9,0.18,7.8,0.3,11.72,0.3c3.92,0,7.82-0.12,11.704-0.296C268.696,511.66,269.688,511.608,270.68,511.556z"/>
</g>
<path style="fill:#3F8C7F;" d="M356.984,335.116c36.512,0.648,99.796,7.42,110.028,58.812c0.388,1.924,0.692,3.812,0.932,5.664
	c3.872-5.696,7.46-11.584,10.872-17.588C458.78,334.22,384.592,334.756,356.984,335.116z"/>
<ellipse style="fill:#F5F5F5;" cx="351.2" cy="339.36" rx="39.172" ry="15.388"/>
<path style="fill:#E6CBC3;" d="M385.928,331.152h0.016l-9.58-29.792l-25.184-1.864L326,301.36l-9.584,29.792h0.016
	c-0.14,0.412-0.232,0.824-0.232,1.24c0,6.172,15.66,11.172,34.972,11.172c19.316,0,34.976-5,34.976-11.172
	C386.164,331.976,386.08,331.564,385.928,331.152z"/>
<path style="fill:#D9BFB8;" d="M385.928,331.152h0.016l-9.58-29.792l-25.184-1.864l-4.896,0.36l20.28,1.504l9.584,29.792h-0.016
	c0.144,0.412,0.232,0.824,0.232,1.24c0,5.636-13.084,10.288-30.08,11.056c1.6,0.072,3.232,0.116,4.896,0.116
	c19.316,0,34.976-5,34.976-11.172C386.164,331.976,386.08,331.564,385.928,331.152z"/>
<path style="fill:#FFE1D9;" d="M423.936,181.28v-29.104c0-22.7-16.148-40.844-72.752-40.844s-72.748,18.144-72.748,40.844v29.104
	c0,0-11.196,0.828-11.196,8.396v30.972c0,7.568,2.796,13.796,11.196,13.796c0,37.836,33.64,81.144,72.748,81.144
	s72.752-43.304,72.752-81.144c8.396,0,11.192-6.228,11.192-13.796v-30.972C435.128,182.108,423.936,181.28,423.936,181.28z"/>
<path style="fill:#F2D6CE;" d="M351.188,111.332c-1.428,0-2.816,0.02-4.196,0.044c53.196,0.884,68.552,18.672,68.552,40.8v29.104
	v53.164c0,36.472-31.26,78.016-68.552,80.964c1.4,0.108,2.788,0.18,4.196,0.18c39.108,0,72.752-43.304,72.752-81.144V181.28v-29.104
	C423.936,129.476,407.788,111.332,351.188,111.332z"/>
<path style="fill:#99602E;" d="M351.188,111.332c-56.6,0-72.752,18.144-72.752,40.844v29.104v30.78
	c2.588-12.956,9.992-49.892,26.624-61.948c13.24,3.784,29.084,5.988,46.12,5.988s32.896-2.204,46.124-5.988
	c16.628,12.06,24.036,48.992,26.62,61.948v-30.78v-29.104C423.936,129.476,407.788,111.332,351.188,111.332z"/>
<path style="fill:#8C582A;" d="M351.188,111.332c-1.42,0-2.804,0.02-4.188,0.044c53.188,0.888,68.544,18.672,68.544,40.8v27.616
	c4.456,12.668,7.068,25.624,8.396,32.268v-30.78v-29.104C423.936,129.476,407.788,111.332,351.188,111.332z"/>
<ellipse style="fill:#F5F5F5;" cx="328.92" cy="203.668" rx="11.192" ry="8.396"/>
<circle style="fill:#734822;" cx="328.92" cy="203.668" r="5.596"/>
<ellipse style="fill:#F5F5F5;" cx="379.32" cy="203.668" rx="11.192" ry="8.396"/>
<circle style="fill:#734822;" cx="379.32" cy="203.668" r="5.596"/>
<path style="fill:#F5F5F5;" d="M336,368h-56c-13.236,0-24,10.764-24,24c0-13.236-10.764-24-24-24h-56c-13.236,0-24,10.764-24,24v56
	c0,13.236,10.764,24,24,24h56c13.236,0,24-10.764,24-24c0,13.236,10.764,24,24,24h56c13.236,0,24-10.764,24-24v-56
	C360,378.764,349.236,368,336,368z"/>
<path style="fill:#FFD464;" d="M300,428h-88c-4.416,0-8-3.584-8-8s3.584-8,8-8h88c4.416,0,8,3.584,8,8S304.416,428,300,428z"/>
<g>
	<path style="fill:#E16B5A;" d="M336,376h-56c-8.824,0-16,7.176-16,16v12h16v-12h56l-0.024,56H280v-12h-16v12
		c0,8.824,7.176,16,16,16h56c8.824,0,16-7.176,16-16v-56C352,383.176,344.824,376,336,376z"/>
	<path style="fill:#E16B5A;" d="M232,436v12h-56v-56h56l-0.004,12H248v-12c0-8.824-7.176-16-16-16h-56c-8.824,0-16,7.176-16,16v56
		c0,8.824,7.176,16,16,16h56c8.824,0,16-7.176,16-16v-12H232z"/>
</g>
<g>
</g>
<g>
</g>
<g>
</g>
<g>
</g>
<g>
</g>
<g>
</g>
<g>
</g>
<g>
</g>
<g>
</g>
<g>
</g>
<g>
</g>
<g>
</g>
<g>
</g>
<g>
</g>
<g>
</g>
</svg>
